Coordinates
version=1
nRows=30
nColumns=38
inDegrees=no

Units are S.I. units (second, meters, Newtons, ...)
If the header above contains a line with 'inDegrees', this indicates whether rotational values are in degrees (yes) or radians (no).

endheader
time	pelvis_tilt	pelvis_list	pelvis_rotation	pelvis_tx	pelvis_ty	pelvis_tz	hip_flexion_r	hip_adduction_r	hip_rotation_r	knee_angle_r	ankle_angle_r	subtalar_angle_r	mtp_angle_r	hip_flexion_l	hip_adduction_l	hip_rotation_l	knee_angle_l	ankle_angle_l	subtalar_angle_l	mtp_angle_l	lumbar_extension	lumbar_bending	lumbar_rotation	arm_flex_r	arm_add_r	arm_rot_r	elbow_flex_r	pro_sup_r	wrist_flex_r	wrist_dev_r	arm_flex_l	arm_add_l	arm_rot_l	elbow_flex_l	pro_sup_l	wrist_flex_l	wrist_dev_l
1.58	-0.072869	1.45593	-1.34829	0.927284	-0.172651	0.94407	0.322754	-0.121205	-0.326936	0.508213	0.148174	0	0	-0.290099	0.0327896	-0.0274514	0.0426048	0.125211	0	0	-0.269059	-0.0536775	-0.221569	-0.155631	-0.165668	-0.093788	0.481544	1.14402	0	0	-0.0119928	-0.434203	0.230942	0.665014	1.32379	0	0
1.59	-0.0696311	1.46226	-1.34959	0.926429	-0.181802	0.941903	0.324389	-0.115603	-0.338471	0.4424	0.148407	0	0	-0.30067	0.0318209	-0.0247048	0.0312432	0.130936	0	0	-0.264294	-0.0559799	-0.221232	-0.157733	-0.163222	-0.0981595	0.481362	1.14686	0	0	-0.008858	-0.436752	0.23382	0.675538	1.32152	0	0
1.6	-0.0635612	1.4688	-1.35475	0.925476	-0.190964	0.939501	0.325625	-0.108725	-0.345149	0.37651	0.148791	0	0	-0.311842	0.0313391	-0.0225714	0.0185853	0.136621	0	0	-0.25943	-0.0586721	-0.220294	-0.159988	-0.160638	-0.104847	0.481938	1.15274	0	0	-0.00603002	-0.439011	0.237158	0.686265	1.31882	0	0
1.61	-0.0504173	1.47574	-1.36765	0.924396	-0.200179	0.936873	0.326959	-0.10226	-0.349201	0.312395	0.149412	0	0	-0.322718	0.0315892	-0.0217927	0.00605183	0.14233	0	0	-0.254383	-0.0622103	-0.219425	-0.161565	-0.157964	-0.112885	0.481882	1.15915	0	0	-0.00383021	-0.441189	0.239233	0.696597	1.32008	0	0
1.62	-0.028405	1.48317	-1.38989	0.923221	-0.209437	0.934055	0.328653	-0.0962187	-0.349313	0.250901	0.150093	0	0	-0.331937	0.0324373	-0.0239103	0	0.149437	0	0	-0.249018	-0.0665013	-0.219156	-0.162943	-0.156054	-0.117198	0.482432	1.16248	0	0	-0.00265835	-0.443158	0.240013	0.706522	1.32287	0	0
1.63	0.00351019	1.49009	-1.42203	0.922014	-0.218714	0.931191	0.328994	-0.0901022	-0.344421	0.191489	0.150374	0	0	-0.34033	0.0335078	-0.0275661	0	0.157412	0	0	-0.244244	-0.0711401	-0.219063	-0.164112	-0.154302	-0.121141	0.483135	1.16647	0	0	-0.00106741	-0.444907	0.241929	0.715109	1.32593	0	0
1.64	0.0324168	1.49608	-1.4517	0.920702	-0.228064	0.928378	0.322471	-0.0801547	-0.320514	0.122365	0.139156	0	0	-0.348527	0.0336488	-0.0320418	0	0.167282	0	0	-0.240295	-0.0750109	-0.218884	-0.163874	-0.15261	-0.126899	0.482236	1.175	0	0	-0.000165564	-0.446696	0.244533	0.72349	1.331	0	0
1.65	0.0444488	1.49927	-1.46687	0.919508	-0.23715	0.92566	0.313822	-0.0694535	-0.2896	0.0590433	0.123758	0	0	-0.350948	0.0386468	-0.0247862	0	0.173071	0	0	-0.239616	-0.0763087	-0.218287	-0.161185	-0.152383	-0.131939	0.480429	1.18755	0	0	0.000405952	-0.447456	0.246466	0.730104	1.33751	0	0
1.66	0.0849453	1.50321	-1.50652	0.918482	-0.246801	0.922922	0.307306	-0.0645874	-0.263123	0.0091281	0.110887	0	0	-0.359099	0.0384044	-0.025182	0	0.182857	0	0	-0.23782	-0.0793036	-0.220551	-0.159879	-0.152011	-0.135501	0.479314	1.1976	0	0	0.00117953	-0.447853	0.248288	0.735026	1.34559	0	0
1.67	0.117815	1.50451	-1.53932	0.917539	-0.256407	0.920404	0.312165	-0.0640933	-0.251956	0	0.107007	0	0	-0.369734	0.0374784	-0.024136	0	0.191869	0	0	-0.238879	-0.0807158	-0.222967	-0.157739	-0.152858	-0.136023	0.478946	1.20334	0	0	0.00214374	-0.447454	0.250987	0.737833	1.35131	0	0
1.68	0.133909	1.50503	-1.5547	0.916693	-0.26639	0.918037	0.31673	-0.063113	-0.248967	0	0.107339	0	0	-0.380865	0.0351042	-0.022731	0.000496323	0.201651	0	0	-0.240361	-0.0804322	-0.225851	-0.15588	-0.154243	-0.135595	0.47929	1.20932	0	0	0.00263934	-0.446238	0.253906	0.739013	1.35705	0	0
1.69	0.145249	1.5053	-1.56448	0.916001	-0.276765	0.915815	0.317636	-0.0616923	-0.248368	0	0.108463	0	0	-0.391761	0.0320785	-0.0206813	0.00245111	0.211232	0	0	-0.241649	-0.0793742	-0.229441	-0.154314	-0.155566	-0.135003	0.480009	1.21539	0	0	0.0027334	-0.444197	0.257133	0.738451	1.3622	0	0
1.7	0.153146	1.50493	-1.57004	0.9155	-0.287457	0.913814	0.31434	-0.060126	-0.247938	0	0.109127	0	0	-0.402027	0.028565	-0.0189219	0.00780652	0.22022	0	0	-0.243294	-0.0775375	-0.233484	-0.152964	-0.156909	-0.133705	0.480828	1.2217	0	0	0.00302058	-0.441273	0.26113	0.735687	1.36647	0	0
1.71	0.187081	1.50362	-1.59711	0.915076	-0.298695	0.912193	0.307581	-0.0614442	-0.252202	0.0043216	0.111083	0	0	-0.411746	0.0180016	-0.0332159	0.0170036	0.236787	0	0	-0.245555	-0.0771664	-0.239889	-0.15278	-0.157379	-0.131435	0.48072	1.22749	0	0	0.00392489	-0.43818	0.266084	0.73086	1.36982	0	0
1.72	0.178314	1.49965	-1.58472	0.914812	-0.309788	0.910748	0.310716	-0.0633301	-0.269299	0.0436592	0.119477	0	0	-0.420693	0.0125239	-0.0391135	0.0338926	0.248577	0	0	-0.250823	-0.0727912	-0.245214	-0.151364	-0.159071	-0.128608	0.48175	1.23213	0	0	0.00419632	-0.433958	0.270926	0.724615	1.37252	0	0
1.73	0.171867	1.49598	-1.57399	0.914645	-0.321153	0.909391	0.314257	-0.0667621	-0.292489	0.0878421	0.130051	0	0	-0.428026	0.00671325	-0.0461209	0.0534588	0.259252	0	0	-0.255342	-0.0680426	-0.251138	-0.150618	-0.160686	-0.12514	0.483213	1.23501	0	0	0.00391137	-0.429042	0.276126	0.71664	1.37384	0	0
1.74	0.16338	1.49286	-1.56049	0.914516	-0.332808	0.908152	0.314858	-0.0699125	-0.314261	0.125448	0.13857	0	0	-0.43331	-0.000128059	-0.0547171	0.0761459	0.268998	0	0	-0.258678	-0.062764	-0.25745	-0.150507	-0.162278	-0.120751	0.484671	1.23646	0	0	0.00309694	-0.423314	0.280811	0.707032	1.37415	0	0
1.75	0.14568	1.49059	-1.53763	0.914284	-0.34465	0.907085	0.311882	-0.0706766	-0.331117	0.150369	0.137719	0	0	-0.435574	-0.00860071	-0.0662672	0.102858	0.277931	0	0	-0.260734	-0.0565056	-0.263705	-0.150516	-0.16389	-0.114899	0.485801	1.23731	0	0	0.00189816	-0.416856	0.284469	0.695637	1.37389	0	0
1.76	0.109754	1.48939	-1.49753	0.913741	-0.356639	0.906217	0.305052	-0.0667685	-0.34161	0.159114	0.120221	0	0	-0.4341	-0.0193909	-0.0816889	0.134456	0.285992	0	0	-0.261211	-0.0489917	-0.268584	-0.150197	-0.165197	-0.107965	0.485618	1.23756	0	0	0.000463174	-0.409726	0.287166	0.682437	1.37373	0	0
1.77	0.0600289	1.48969	-1.44521	0.912724	-0.368829	0.905452	0.296007	-0.0588268	-0.348336	0.155606	0.0878542	0	0	-0.427873	-0.0321281	-0.1009	0.172008	0.292909	0	0	-0.259378	-0.0411472	-0.271033	-0.150212	-0.165665	-0.103309	0.485926	1.23545	0	0	-0.00112246	-0.402406	0.289578	0.668031	1.37405	0	0
1.78	0.00221927	1.49186	-1.38669	0.911232	-0.381243	0.904694	0.287152	-0.0490322	-0.352261	0.147959	0.0515527	0	0	-0.41646	-0.046201	-0.122737	0.215704	0.297791	0	0	-0.254664	-0.0338487	-0.271067	-0.151099	-0.165134	-0.0994646	0.486	1.23204	0	0	-0.00344043	-0.395124	0.291478	0.653225	1.37484	0	0
1.79	-0.105594	1.49424	-1.28352	0.909897	-0.393325	0.903895	0.281095	-0.0360839	-0.357004	0.143885	0.0223727	0	0	-0.398071	-0.0519176	-0.130123	0.269605	0.289928	0	0	-0.248229	-0.0229595	-0.267553	-0.150757	-0.165514	-0.0952799	0.48601	1.22819	0	0	-0.00701937	-0.386964	0.293043	0.638598	1.3759	0	0
1.8	-0.187944	1.49617	-1.20246	0.908123	-0.405954	0.903625	0.276766	-0.0272385	-0.364335	0.149215	0.00316546	0	0	-0.379348	-0.0684997	-0.151701	0.324425	0.28341	0	0	-0.241602	-0.0147417	-0.265052	-0.151725	-0.164468	-0.0915496	0.485211	1.22385	0	0	-0.0105618	-0.378931	0.293724	0.624074	1.3773	0	0
1.81	-0.293317	1.49511	-1.09953	0.906357	-0.41859	0.903879	0.274723	-0.0176836	-0.371755	0.165246	-0.00577593	0	0	-0.358786	-0.0884265	-0.173331	0.384804	0.268866	0	0	-0.236841	-0.00362752	-0.260544	-0.151976	-0.164164	-0.0869199	0.484093	1.2187	0	0	-0.0139972	-0.369917	0.293522	0.610117	1.37899	0	0
1.82	-0.411277	1.4905	-0.985184	0.904521	-0.431181	0.904654	0.273061	-0.00586047	-0.376174	0.188141	-0.00442555	0	0	-0.336446	-0.111842	-0.19326	0.44965	0.243497	0	0	-0.234248	0.0105707	-0.254045	-0.151604	-0.164727	-0.0810061	0.483373	1.21255	0	0	-0.0176691	-0.360071	0.291203	0.597719	1.38106	0	0
1.83	-0.53195	1.48425	-0.869192	0.9026	-0.443733	0.905641	0.271388	0.00819793	-0.377463	0.211584	0.00354716	0	0	-0.310332	-0.137794	-0.210778	0.518085	0.205575	0	0	-0.231345	0.0265637	-0.246319	-0.151452	-0.165659	-0.0745281	0.483805	1.20579	0	0	-0.022488	-0.349943	0.287004	0.587454	1.38352	0	0
1.84	-0.630444	1.48022	-0.774874	0.899727	-0.45665	0.906581	0.270528	0.0209007	-0.376623	0.23265	0.0116774	0	0	-0.281128	-0.175249	-0.234771	0.58722	0.163553	0	0	-0.225721	0.0387313	-0.23813	-0.153463	-0.165601	-0.067108	0.485825	1.1968	0	0	-0.0285416	-0.341172	0.281676	0.579945	1.38636	0	0
1.85	-0.771634	1.47598	-0.642559	0.897452	-0.468828	0.906918	0.273446	0.0366924	-0.374761	0.249306	0.0162579	0	0	-0.241687	-0.201726	-0.244381	0.663106	0.101531	0	0	-0.216301	0.0547636	-0.226869	-0.155902	-0.169371	-0.0517205	0.491265	1.17523	0	0	-0.035832	-0.331619	0.276061	0.575686	1.39057	0	0
1.86	-0.87709	1.47164	-0.546283	0.895198	-0.480974	0.907247	0.271406	0.0517901	-0.37026	0.25726	0.0161302	0	0	-0.20371	-0.224315	-0.24731	0.734667	0.0388655	0	0	-0.207841	0.0681612	-0.215904	-0.158437	-0.172895	-0.0385122	0.49639	1.15683	0	0	-0.044802	-0.324964	0.275827	0.577239	1.38844	0	0
1.87	-0.962203	1.46776	-0.470431	0.892902	-0.493036	0.907479	0.265783	0.0668402	-0.363804	0.258296	0.015628	0	0	-0.165533	-0.244317	-0.247146	0.803848	-0.0237408	0	0	-0.199657	0.0793801	-0.205086	-0.160656	-0.17647	-0.0252671	0.499862	1.13988	0	0	-0.0548702	-0.320455	0.278246	0.583243	1.38147	0	0
